<?xml version="1.0" encoding="utf-8"?>
<svg version="1.1" id="flag-icons-ar" xmlns="http://www.w3.org/2000/svg" xmlns:xlink="http://www.w3.org/1999/xlink" x="0px"
	 y="0px" viewBox="0 0 640 480" style="enable-background:new 0 0 640 480;" xml:space="preserve">
<style type="text/css">
	.st0{fill:#D4D4D4;}
	.st1{fill:#F6B40E;stroke:#85340A;stroke-width:1.4;}
	.st2{fill:#85340A;}
	.st3{fill:#FFFFFF;}
</style>
<path class="st0" d="M0,0h640v480H0V0z"/>
<path id="h" class="st1" d="M0,0"/>
<g transform="matrix(-1 0 0 1 640.2 0)">
	<path id="e" class="st2" d="M640.2,0"/>
</g>
<path class="st2" d="M0,0"/>
<path class="st2" d="M0,0"/>
<path id="e_1_" class="st2" d="M0,0"/>
<g transform="translate(-18.4)">
	<path id="h_1_" class="st2" d="M-18.4,0"/>
</g>
<path id="flowRoot1875" class="st3" d="M325.6,286.8H295c-0.2-0.7-1.2-3.5-3-8.2c-1.8-4.7-2.6-8.8-2.6-12.4c0-6.7,0.9-13.2,2.8-19.4
	c1.9-6.2,4.6-12,8.3-17.4c3.6-5.4,10.8-14,21.6-25.9c10.7-11.9,16.1-21.7,16.1-29.4c0-15-9.8-22.5-29.4-22.5
	c-9.5,0-19.5,4.8-29.8,14.3l-16.5-31c13.8-10.8,31.9-16.2,54.4-16.2c17.3,0,31.8,4.8,43.4,14.4c11.6,9.6,17.4,22.4,17.4,38.3
	c0,10.9-2.1,20.1-6.3,27.7c-4.2,7.5-11.7,16.4-22.3,26.5c-10.6,10.2-17.6,18.6-20.8,25.3c-3.2,6.7-4.8,14.1-4.8,22.1
	C323.4,275,324.1,279.5,325.6,286.8L325.6,286.8z M312,308.6c7.3,0,13.4,2.6,18.5,7.7s7.6,11.3,7.6,18.6c0,7.3-2.5,13.5-7.6,18.6
	s-11.3,7.7-18.5,7.7c-7.3,0-13.5-2.6-18.6-7.7c-5.1-5.1-7.7-11.3-7.7-18.6c0-7.3,2.6-13.5,7.7-18.6
	C298.5,311.1,304.7,308.6,312,308.6L312,308.6z"/>
</svg>
