<?xml version="1.0" encoding="utf-8"?>
<!-- Generator: Adobe Illustrator 16.0.0, SVG Export Plug-In . SVG Version: 6.00 Build 0)  -->
<!DOCTYPE svg PUBLIC "-//W3C//DTD SVG 1.1//EN" "http://www.w3.org/Graphics/SVG/1.1/DTD/svg11.dtd">
<svg version="1.1" id="Layer_1" xmlns="http://www.w3.org/2000/svg" xmlns:xlink="http://www.w3.org/1999/xlink" x="0px" y="0px"
	 width="634px" height="170px" viewBox="0 0 634 170" enable-background="new 0 0 634 170" xml:space="preserve">
<g>
	<path fill="#FFFFFF" d="M506.323,100.676c-0.278,0.311-0.55,0.721-0.755,1.022c-0.242,0.355-0.327,0.794-0.48,1.193
		c-0.232,0.606-0.133,1.813,0.068,2.411c0.234,0.701,0.645,1.467,1.22,1.96c0.596,0.511,1.377,1.046,2.185,1.143
		c0.547,0.065,1.026,0.14,1.555,0.124c2.408-0.073,4.355-2.148,4.28-4.557c-0.038-1.256-0.624-2.383-1.513-3.166
		c-0.098-0.113-0.201-0.223-0.312-0.325C510.848,98.861,507.931,98.881,506.323,100.676z"/>
	<path fill="#FFFFFF" d="M617.593,118.713c-0.333,0.611-0.694,1.201-1.077,1.781c-0.057,0.064-0.432,0.588-0.471,0.637
		c-0.249,0.314-0.515,0.615-0.779,0.914c-1.414,1.599-2.017,2.043-3.356,2.992c-3.006,2.129-4.915,2.906-8.605,3.858
		c-0.396,0.103-0.797,0.188-1.197,0.274c-0.063,0.014-0.543,0.1-0.731,0.136c-0.705,0.104-1.414,0.178-2.123,0.233
		c-0.802,0.063-1.605,0.076-2.408,0.072c-0.398-0.002-0.796-0.021-1.193-0.041c-0.222-0.012-0.441-0.029-0.663-0.047
		c-0.037-0.004-0.074-0.009-0.12-0.014c-1.985-0.246-3.363-0.528-4.677-1.047c0.602-1.318,1.146-2.674,1.673-4.056
		c2.941-7.714,4.68-19.964-4.72-24.044c-10.338-4.486-15.118,9.147-14.381,17.05c0.467,5.013,2.392,9.64,5.578,13.257
		c-0.327,0.361-0.659,0.717-0.997,1.068c-1.465,1.528-2.83,2.662-4.738,3.655c0.225-0.13-0.197,0.016-0.504,0.128
		c-0.058,0.002-0.237,0.036-0.412,0.067c-0.019-0.056-0.521-0.11-0.262,0.044c-0.011,0.002-0.021,0.003-0.031,0.004
		c-0.023-0.009-0.048-0.018-0.065-0.023c-0.037-0.052-0.118-0.141-0.278-0.288c-1.077-0.996-1.252-3.522-1.317-5.255
		c-0.204-5.426,0.731-10.654-0.397-16.045c-0.645-3.076-2.625-7.035-5.688-8.393c-3.147-1.395-6.092-0.383-8.518,1.85
		c-2.194,2.018-3.794,4.82-5.067,7.793c-1.485-3.626-4.155-6.249-9.001-5.373c-3.325,0.6-5.811,3.697-7.541,6.336
		c-0.614,0.938-1.154,1.93-1.646,2.949c-2.083-3.117-7.06-2.229-7.962,1.428c-0.657,2.67-0.678,5.525-0.761,8.264
		c-0.046,1.491-0.082,2.983-0.143,4.475c-0.034,0.838-0.083,1.674-0.139,2.512c-0.021,0.297-0.047,0.594-0.072,0.892
		c-0.008,0.048-0.076,0.742-0.084,0.815c-0.172,1.422-0.439,2.83-0.819,4.212c-0.059,0.212-0.125,0.422-0.193,0.631
		c0.052-0.167-0.186,0.485-0.247,0.622c-0.105,0.233-0.63,1.035-0.74,1.246c-0.197,0.191-0.452,0.42-0.552,0.52
		c-0.106,0.044-0.411,0.187-0.562,0.231c-0.037,0.013-0.062,0.021-0.091,0.029c-0.022,0.002-0.038,0.004-0.063,0.006
		c-0.367,0.038-0.736,0.025-1.104,0.015c0.972,0.027-1.011-0.402-0.909-0.24c-0.279-0.154-0.629-0.355-0.735-0.397
		c-0.377-0.354-0.925-0.905-0.832-0.75c-0.368-0.485-0.686-1.01-0.982-1.54c-0.043-0.076-0.234-0.48-0.305-0.619
		c-0.102-0.25-0.198-0.502-0.292-0.756c-0.528-1.412-0.872-2.892-1.155-4.371c-0.011-0.057-0.019-0.1-0.027-0.146
		c-0.01-0.074-0.025-0.194-0.055-0.396c-0.063-0.436-0.112-0.873-0.162-1.311c-0.101-0.885-0.164-1.773-0.219-2.662
		c-0.201-3.283-0.101-6.588,0.158-9.865c0.002-0.023,0.004-0.047,0.006-0.07c0.313-2.089,0.606-4.18,0.924-6.262
		c0.361-2.381-0.763-4.736-3.255-5.34c-2.317-0.561-4.803,0.906-5.339,3.255c-0.603,2.636-0.997,5.362-1.223,8.111
		c-0.675,4.23-1.475,8.437-2.715,12.554c-0.604,2.004-0.868,2.688-1.576,4.248c-0.339,0.745-0.721,1.467-1.123,2.179
		c-0.192,0.341-0.402,0.673-0.613,1.003c-0.102,0.146-0.163,0.238-0.192,0.285c-0.084,0.108-0.166,0.219-0.253,0.324
		c-0.393,0.494-0.833,0.945-1.291,1.378c0.184-0.212-0.967,0.683-1.251,0.845c-0.021,0.012-0.033,0.02-0.052,0.031
		c-0.037,0.014-0.075,0.027-0.125,0.047c-0.315,0.123-0.644,0.209-0.97,0.295c-0.017,0.004-0.025,0.008-0.04,0.012
		c-0.046,0.004-0.097,0.008-0.161,0.014c-0.404,0.042-0.811,0.037-1.215,0.021c0.574,0.019-0.472-0.074-0.622-0.103
		c-0.426-0.081-0.845-0.203-1.263-0.315c-0.325-0.087-0.83-0.328-1.536-0.761c0.248,0.135-0.576-0.463-0.616-0.499
		c-0.287-0.253-0.547-0.536-0.805-0.819c0.354,0.375-0.41-0.582-0.429-0.607c-0.338-0.49-0.626-1.014-0.908-1.537
		c-1.419-2.637-2.199-7.168-2.568-10.438c-0.484-4.271-0.796-8.632-0.862-12.927c-0.089-5.714,0.516-11.417,1.103-17.099
		c7.853-1.789,15.729-3.426,23.76-3.885c2.934-0.168,4.28-2.604,4.115-4.877c0.023-2.281-1.465-4.549-4.402-4.381
		c-7.668,0.438-15.199,1.95-22.704,3.643c0.095-1.453,0.192-2.799,0.315-3.832c0.309-2.576-0.026-4.674-0.532-7.226
		c-0.471-2.366-3.412-3.571-5.531-2.917c-2.479,0.766-3.552,3.174-3.083,5.535c0.125,0.625,0.203,1.251,0.203,1.88
		c0,0.002,0,0.003,0,0.005c0,0.043,0.174,0.094,0.182,0.186c0.012,0.104,0.105,0.182,0.115,0.248
		c-0.009,0.057,0.021,0.123,0.011,0.204c-0.345,2.636-0.416,5.299-0.593,7.952c-9.624,2.176-19.264,4.066-29.173,3.789
		c-2.938-0.083-4.274,2.223-4.111,4.498c-0.022,2.278,1.477,4.676,4.406,4.759c9.523,0.269,18.792-1.462,28.022-3.524
		c-0.401,4.028-0.777,8.059-0.909,12.109c-0.153,4.731,0.228,9.481,0.639,14.193c0.375,4.297,0.978,8.662,2.354,12.762
		c1.438,4.281,3.858,7.892,7.591,10.461c3.364,2.314,7.966,2.787,11.862,1.926c4.575-1.014,7.736-4.523,9.981-8.591
		c1.325,3.067,3.308,5.761,6.28,7.567c3.42,2.08,7.957,2.041,11.488,0.347c1.294-0.621,2.35-1.519,3.225-2.575
		c2.629,1.533,6.953,0.207,6.872-3.791c-0.013-0.59,0.021-1.179,0.066-1.768c0.001,0.039,0.102-0.958,0.13-1.189
		c0.088-0.695,0.192-1.39,0.3-2.082c0.503-3.229,1.198-6.428,2.04-9.584c0.431-1.615,0.924-3.211,1.467-4.791
		c0.098-0.282,0.197-0.563,0.299-0.844c0.042-0.112,0.07-0.193,0.095-0.264c0.03-0.07,0.068-0.166,0.124-0.306
		c0.314-0.783,0.66-1.552,1.022-2.313c0.286-0.597,0.599-1.179,0.923-1.756c0.134-0.236,0.864-1.317,0.906-1.418
		c0.188-0.238,0.385-0.469,0.592-0.691c0.116,0.404,0.219,0.813,0.311,1.224c0.02,0.089,0.095,0.491,0.128,0.659
		c0.039,0.271,0.078,0.543,0.113,0.814c0.219,1.701,0.309,3.419,0.367,5.133c0.18,5.331-0.187,10.654-0.559,15.97
		c-0.133,2.409,2.305,4.351,4.557,4.281c2.56-0.079,4.074-2.104,4.271-4.47c0.051-0.381,0.111-0.76,0.175-1.137
		c0.197-1.17,0.439-2.332,0.692-3.49c0.65-2.978,1.427-5.928,2.28-8.852c0.45-1.547,0.936-3.082,1.448-4.607
		c0.254-0.757,0.521-1.509,0.794-2.259c0.099-0.271,0.201-0.542,0.304-0.813c-0.06,0.168,0.346-0.863,0.399-0.994
		c0.536-1.31,1.127-2.596,1.776-3.854c0.288-0.556,0.6-1.1,0.924-1.636c0.067-0.112,0.142-0.222,0.213-0.332
		c0.044,0.136,0.099,0.306,0.179,0.541c0.795,2.327,0.651,4.925,0.567,7.349c-0.187,5.363-0.837,10.845,1.621,15.836
		c2.354,4.781,7.521,6.88,12.524,5.118c4.036-1.42,7.396-4.597,10.159-7.834c13.744,6.437,32.673,0.254,39.91-13.026
		C628.096,117.918,620.319,113.711,617.593,118.713z M543.266,118.441c-0.002,0-0.005,0.002-0.008,0.002
		c0.034-0.02,0.07-0.04,0.104-0.059C543.327,118.404,543.294,118.424,543.266,118.441z M541.663,117.903
		c0.001,0.003,0.001,0.003,0.003,0.005c-0.021-0.016-0.039-0.031-0.063-0.05C541.627,117.877,541.643,117.889,541.663,117.903z
		 M571.406,135.641c0.01-0.001,0.021-0.001,0.031-0.002c0.039,0.022,0.088,0.047,0.16,0.078
		C571.518,135.683,571.458,135.659,571.406,135.641z M583.452,108.373c-0.007-0.004-0.014-0.008-0.023-0.012h0.003
		c0.01,0.002,0.019,0.006,0.028,0.008C583.457,108.371,583.455,108.371,583.452,108.373z M583.496,108.404L583.496,108.404
		c0.006-0.007,0.013-0.012,0.02-0.018c0.001,0.001,0.002,0,0.003,0.002C583.511,108.394,583.504,108.398,583.496,108.404z
		 M583.599,108.316c0.003-0.002,0.004-0.004,0.006-0.006c0.009-0.002,0.018-0.005,0.026-0.008c-0.001,0-0.004,0.002-0.005,0.003
		C583.616,108.31,583.608,108.313,583.599,108.316z M582.179,111.161c0.267-0.96,0.234-0.851,0.78-1.897
		c0.023-0.045,0.319-0.477,0.422-0.646c0.065-0.065,0.139-0.138,0.205-0.203c0.333,0.137,0.585,0.386,1.039,0.848
		c-0.584-0.594,0.202,0.377,0.26,0.472c0.031,0.052,0.056,0.091,0.079,0.13c0.011,0.063,0.043,0.175,0.112,0.374
		c0.144,0.413,0.23,0.843,0.318,1.271c-0.18-0.869,0.01,0.607,0.012,0.643c0.134,2.156-0.176,3.492-0.734,5.75
		c-0.404,1.639-0.883,3.129-1.451,4.578c-0.169-0.297-0.325-0.604-0.477-0.909c0.41,0.825-0.244-0.683-0.303-0.845
		c-0.721-1.99-0.789-2.738-0.922-4.541C581.373,114.203,581.571,113.348,582.179,111.161z"/>
</g>
<path fill="#FFFFFF" d="M125.76,22.702c-21.508,0-38.944,17.437-38.944,38.945c0,21.508,17.436,38.945,38.944,38.945
	s38.945-17.438,38.945-38.945C164.705,40.139,147.269,22.702,125.76,22.702z M130.054,69.391L117,76.624V62.147V47.672l13.054,7.234
	l13.026,7.241L130.054,69.391z"/>
<path fill="#FFFFFF" d="M365,22.703c-21.508,0-38.945,17.437-38.945,38.945s17.438,38.944,38.945,38.944
	c21.51,0,38.945-17.436,38.945-38.944S386.51,22.703,365,22.703z M362,75h-10V47h10V75z M378,75h-10V47h10V75z"/>
<path fill="#FFFFFF" d="M70.334,29.816c5.435,4.622,8.151,11.72,8.151,21.294c0,9.576-2.792,16.581-8.374,21.017
	c-5.583,4.437-14.104,6.655-25.564,6.655H34.234v21.627H16.932V22.885h27.395C56.23,22.885,64.9,25.197,70.334,29.816z
	 M57.635,60.316c2.07-2.329,3.105-5.729,3.105-10.203c0-4.473-1.349-7.652-4.048-9.538c-2.701-1.886-6.896-2.829-12.588-2.829
	h-9.871v26.064h11.645C51.646,63.811,55.565,62.645,57.635,60.316z"/>
<path fill="#FFFFFF" d="M229.026,29.816c5.435,4.622,8.151,11.72,8.151,21.294c0,9.576-2.791,16.581-8.373,21.017
	c-5.583,4.437-14.104,6.655-25.564,6.655h-10.314v21.627h-17.302V22.885h27.395C214.922,22.885,223.592,25.197,229.026,29.816z
	 M216.327,60.316c2.07-2.329,3.105-5.729,3.105-10.203c0-4.473-1.35-7.652-4.048-9.538c-2.701-1.886-6.896-2.829-12.588-2.829
	h-9.871v26.064h11.645C210.338,63.811,214.257,62.645,216.327,60.316z"/>
<path fill="#FFFFFF" d="M288.309,85.104c8.502,0,15.452-3.364,20.851-10.093l11.09,11.424c-8.799,9.908-19.169,14.861-31.107,14.861
	c-11.943,0-21.777-3.771-29.502-11.312c-7.727-7.542-11.59-17.062-11.59-28.559s3.937-21.09,11.812-28.781
	c7.875-7.689,17.504-11.535,28.891-11.535c12.716,0,23.363,4.844,31.941,14.529l-10.759,12.2
	c-5.472-6.801-12.274-10.203-20.405-10.203c-6.508,0-12.073,2.126-16.692,6.376c-4.622,4.253-6.932,9.982-6.932,17.191
	c0,7.208,2.18,12.996,6.544,17.357C276.811,82.924,282.098,85.104,288.309,85.104z"/>
<g>
	<path fill="#FFFFFF" d="M471.186,88.303c0.011-0.369,0.033-0.752,0.046-1.126L460.97,72.682
		c9.833-3.622,14.751-11.645,14.751-24.066c0-9.02-2.57-15.563-7.708-19.631c-5.14-4.065-13.735-6.1-25.786-6.1h-29.39v77.525
		h17.301V75.677h11.979l11.574,16.655c5.995-0.567,11.848-1.719,17.462-2.964C471.165,89.013,471.175,88.658,471.186,88.303z
		 M454.871,57.821c-2.147,1.924-6.176,2.884-12.089,2.884h-12.645V37.747h12.976c5.547,0,9.429,0.777,11.646,2.329
		c2.218,1.552,3.328,4.419,3.328,8.596C458.087,52.849,457.014,55.899,454.871,57.821z"/>
	<path fill="#FFFFFF" d="M505.766,83.212v-31.38l36.934,48.578H560V22.885h-17.301v49.909l-38.042-49.909h-16.192v62.66
		c5.849-1.183,11.214-2.013,16.725-2.328C505.385,83.206,505.575,83.208,505.766,83.212z"/>
</g>
</svg>
